<?xml version="1.0" standalone="no"?>
<!DOCTYPE svg PUBLIC "-//W3C//DTD SVG 20010904//EN"
 "http://www.w3.org/TR/2001/REC-SVG-20010904/DTD/svg10.dtd">
<svg version="1.0" xmlns="http://www.w3.org/2000/svg"
 width="256.000000pt" height="256.000000pt" viewBox="0 0 256.000000 256.000000"
 preserveAspectRatio="xMidYMid meet">
<metadata>
Created by potrace 1.11, written by Peter Selinger 2001-2013
</metadata>
<g transform="translate(0.000000,256.000000) scale(0.100000,-0.100000)"
fill="#000000" stroke="none">
<path d="M320 1840 l0 -400 160 0 160 0 0 240 0 240 80 0 80 0 0 -800 0 -800
160 0 160 0 0 960 0 960 -400 0 -400 0 0 -400z"/>
<path d="M1280 1280 l0 -960 160 0 160 0 0 800 0 800 80 0 80 0 0 -800 0 -800
160 0 160 0 0 800 0 800 80 0 80 0 0 160 0 160 -480 0 -480 0 0 -960z"/>
</g>
</svg>
